<svg width="1600" height="1000" viewBox="0 0 1600 1000" xmlns="http://www.w3.org/2000/svg">
  <defs>
    <linearGradient id="sea" x1="0" y1="0" x2="0" y2="1">
      <stop offset="0%" stop-color="#4f7ea0"/>
      <stop offset="100%" stop-color="#2b4e69"/>
    </linearGradient>
    <linearGradient id="sky2" x1="0" y1="0" x2="0" y2="1">
      <stop offset="0%" stop-color="#a5c6dc"/>
      <stop offset="100%" stop-color="#edf3f7"/>
    </linearGradient>
  </defs>
  <rect width="1600" height="1000" fill="url(#sky2)"/>
  <rect y="620" width="1600" height="380" fill="url(#sea)"/>
  <rect x="190" y="220" width="250" height="400" fill="#d9dee1"/>
  <rect x="470" y="180" width="210" height="440" fill="#bec9cf"/>
  <rect x="720" y="120" width="310" height="500" fill="#b0bcc4"/>
  <rect x="1060" y="170" width="230" height="450" fill="#c7d1d6"/>
  <rect x="1320" y="250" width="120" height="370" fill="#d8dee0"/>
  <g fill="#f2f6f8" opacity="0.95">
    <rect x="220" y="250" width="44" height="30"/><rect x="278" y="250" width="44" height="30"/><rect x="336" y="250" width="44" height="30"/>
    <rect x="750" y="160" width="46" height="30"/><rect x="812" y="160" width="46" height="30"/><rect x="874" y="160" width="46" height="30"/>
    <rect x="1090" y="210" width="42" height="30"/><rect x="1146" y="210" width="42" height="30"/><rect x="1202" y="210" width="42" height="30"/>
  </g>
</svg>
