<svg width="1600" height="1000" viewBox="0 0 1600 1000" xmlns="http://www.w3.org/2000/svg">
  <defs>
    <linearGradient id="sky" x1="0" y1="0" x2="0" y2="1">
      <stop offset="0%" stop-color="#89b4d8"/>
      <stop offset="60%" stop-color="#d6e5f1"/>
      <stop offset="100%" stop-color="#f5f1e8"/>
    </linearGradient>
  </defs>
  <rect width="1600" height="1000" fill="url(#sky)"/>
  <rect y="730" width="1600" height="270" fill="#d1d6d3"/>
  <rect x="260" y="240" width="230" height="490" fill="#c9d0d3"/>
  <rect x="520" y="180" width="280" height="550" fill="#b7c2c8"/>
  <rect x="840" y="130" width="320" height="600" fill="#aab7bf"/>
  <rect x="1190" y="220" width="180" height="510" fill="#c4ccd1"/>
  <g fill="#e9eff2" opacity="0.9">
    <rect x="290" y="280" width="40" height="32"/><rect x="346" y="280" width="40" height="32"/><rect x="402" y="280" width="40" height="32"/>
    <rect x="290" y="336" width="40" height="32"/><rect x="346" y="336" width="40" height="32"/><rect x="402" y="336" width="40" height="32"/>
    <rect x="560" y="230" width="46" height="34"/><rect x="624" y="230" width="46" height="34"/><rect x="688" y="230" width="46" height="34"/>
    <rect x="880" y="190" width="52" height="36"/><rect x="948" y="190" width="52" height="36"/><rect x="1016" y="190" width="52" height="36"/>
  </g>
</svg>
