<svg width="1600" height="1000" viewBox="0 0 1600 1000" xmlns="http://www.w3.org/2000/svg">
  <defs>
    <linearGradient id="bgf2" x1="0" y1="0" x2="0" y2="1">
      <stop offset="0%" stop-color="#4b6a88"/>
      <stop offset="45%" stop-color="#2f445a"/>
      <stop offset="100%" stop-color="#1a2530"/>
    </linearGradient>
  </defs>
  <rect width="1600" height="1000" fill="url(#bgf2)"/>
  <rect y="760" width="1600" height="240" fill="#111a23"/>
  <ellipse cx="860" cy="760" rx="530" ry="54" fill="#0b1218" opacity="0.8"/>
  <rect x="290" y="300" width="200" height="460" fill="#6a7783"/>
  <rect x="520" y="240" width="240" height="520" fill="#7b8894"/>
  <rect x="790" y="170" width="260" height="590" fill="#8a96a1"/>
  <rect x="1080" y="280" width="230" height="480" fill="#74818d"/>
  <g fill="#f2f5f8" opacity="0.9">
    <rect x="560" y="290" width="40" height="30"/><rect x="614" y="290" width="40" height="30"/><rect x="668" y="290" width="40" height="30"/>
    <rect x="830" y="220" width="42" height="30"/><rect x="886" y="220" width="42" height="30"/><rect x="942" y="220" width="42" height="30"/>
    <rect x="1112" y="320" width="38" height="30"/><rect x="1164" y="320" width="38" height="30"/><rect x="1216" y="320" width="38" height="30"/>
  </g>
</svg>
