<svg width="1600" height="1000" viewBox="0 0 1600 1000" xmlns="http://www.w3.org/2000/svg">
  <defs>
    <linearGradient id="bgf1" x1="0" y1="0" x2="1" y2="1">
      <stop offset="0%" stop-color="#27303a"/>
      <stop offset="60%" stop-color="#162029"/>
      <stop offset="100%" stop-color="#0d141b"/>
    </linearGradient>
  </defs>
  <rect width="1600" height="1000" fill="url(#bgf1)"/>
  <circle cx="1220" cy="190" r="140" fill="#c4975a" opacity="0.25"/>
  <rect y="730" width="1600" height="270" fill="#121a22"/>
  <polygon points="220,730 520,240 820,730" fill="#45525f"/>
  <polygon points="500,730 820,180 1140,730" fill="#566675"/>
  <polygon points="900,730 1180,300 1460,730" fill="#3f4b57"/>
  <g fill="#f3d9a4" opacity="0.9">
    <rect x="560" y="350" width="36" height="56"/><rect x="620" y="350" width="36" height="56"/><rect x="680" y="350" width="36" height="56"/>
    <rect x="560" y="430" width="36" height="56"/><rect x="620" y="430" width="36" height="56"/><rect x="680" y="430" width="36" height="56"/>
    <rect x="980" y="390" width="34" height="52"/><rect x="1036" y="390" width="34" height="52"/><rect x="1092" y="390" width="34" height="52"/>
  </g>
</svg>
